<svg xmlns="http://www.w3.org/2000/svg" xmlns:xlink="http://www.w3.org/1999/xlink" contentStyleType="text/css" height="1052px" preserveAspectRatio="none" style="width:1600px;height:1052px;background:#FFFFFF;" version="1.1" viewBox="0 0 1600 1052" width="1600px" zoomAndPan="magnify"><defs/><g><!--class Persona--><g id="elem_Persona"><rect codeLine="4" fill="#F1F1F1" height="141.1055" id="Persona" rx="2.5" ry="2.5" style="stroke:#181818;stroke-width:0.5;" width="292.5059" x="954" y="226"/><ellipse cx="1069.9307" cy="242" fill="#ADD1B2" rx="11" ry="11" style="stroke:#181818;stroke-width:1.0;"/><path d="M1072.6963,237.875 Q1072.8525,237.6563 1073.04,237.5469 Q1073.2275,237.4375 1073.4463,237.4375 Q1073.8213,237.4375 1074.0557,237.7031 Q1074.29,237.9531 1074.29,238.5625 L1074.29,240.0156 Q1074.29,240.625 1074.0557,240.8906 Q1073.8213,241.1563 1073.4463,241.1563 Q1073.1025,241.1563 1072.8994,240.9531 Q1072.6963,240.7656 1072.5869,240.25 Q1072.54,239.8906 1072.3525,239.7031 Q1072.0244,239.3281 1071.415,239.1094 Q1070.8057,238.8906 1070.1807,238.8906 Q1069.415,238.8906 1068.7744,239.2188 Q1068.1494,239.5469 1067.6494,240.2969 Q1067.165,241.0469 1067.165,242.0781 L1067.165,243.1719 Q1067.165,244.4063 1068.0557,245.2344 Q1068.9463,246.0469 1070.54,246.0469 Q1071.4775,246.0469 1072.1338,245.7969 Q1072.5244,245.6406 1072.9463,245.2031 Q1073.2119,244.9375 1073.3525,244.8594 Q1073.5088,244.7813 1073.7119,244.7813 Q1074.04,244.7813 1074.29,245.0469 Q1074.5557,245.2969 1074.5557,245.6406 Q1074.5557,245.9844 1074.2119,246.3906 Q1073.7119,246.9688 1072.915,247.2969 Q1071.8369,247.75 1070.54,247.75 Q1069.0244,247.75 1067.8213,247.125 Q1066.8369,246.625 1066.1494,245.5625 Q1065.4619,244.4844 1065.4619,243.2031 L1065.4619,242.0469 Q1065.4619,240.7188 1066.0713,239.5781 Q1066.6963,238.4219 1067.79,237.8125 Q1068.8838,237.1875 1070.1182,237.1875 Q1070.8525,237.1875 1071.4932,237.3594 Q1072.1494,237.5156 1072.6963,237.875 Z " fill="#000000"/><text fill="#000000" font-family="sans-serif" font-size="14" lengthAdjust="spacing" textLength="52.1445" x="1090.4307" y="247.7969">Persona</text><line style="stroke:#181818;stroke-width:0.5;" x1="955" x2="1245.5059" y1="258" y2="258"/><text fill="#000000" font-family="sans-serif" font-size="14" lengthAdjust="spacing" textLength="100.3721" x="960" y="277.1074">-nombre : String</text><text fill="#000000" font-family="sans-serif" font-size="14" lengthAdjust="spacing" textLength="108.165" x="960" y="295.7285">-apellidos : String</text><text fill="#000000" font-family="sans-serif" font-size="14" lengthAdjust="spacing" textLength="280.5059" x="960" y="314.3496">-DNI : String { /* Formato: 8 d&#237;gitos + letra */ }</text><text fill="#000000" font-family="sans-serif" font-size="14" lengthAdjust="spacing" textLength="222.5781" x="960" y="332.9707">-fechaCaducidadCarnet : LocalDate</text><text fill="#000000" font-family="sans-serif" font-size="14" lengthAdjust="spacing" textLength="127.6133" x="960" y="351.5918">-anioNacimiento : int</text><line style="stroke:#181818;stroke-width:0.5;" x1="955" x2="1245.5059" y1="359.1055" y2="359.1055"/></g><!--class Vehiculo--><g id="elem_Vehiculo"><rect codeLine="12" fill="#F1F1F1" height="252.832" id="Vehiculo" rx="2.5" ry="2.5" style="stroke:#181818;stroke-width:0.5;" width="343.8643" x="550" y="294"/><ellipse cx="690.8306" cy="310" fill="#A9DCDF" rx="11" ry="11" style="stroke:#181818;stroke-width:1.0;"/><path d="M693.0181,311.7656 L688.8774,311.7656 L688.4556,312.7969 L688.8774,312.7969 Q689.4868,312.7969 689.7524,313.0313 Q690.0181,313.2656 690.0181,313.6563 Q690.0181,314.0313 689.7524,314.2656 Q689.4868,314.5 688.8774,314.5 L686.5806,314.5 Q685.9712,314.5 685.7212,314.2656 Q685.4556,314.0313 685.4556,313.6406 Q685.4556,313.2656 685.7368,313.0313 Q686.0024,312.7813 686.6274,312.7969 L689.2993,306.1406 L688.1899,306.1406 Q687.5806,306.1406 687.3149,305.9063 Q687.0493,305.6719 687.0493,305.2813 Q687.0493,304.9063 687.3149,304.6719 Q687.5806,304.4375 688.1899,304.4375 L691.8618,304.4375 L695.2524,312.7969 Q695.8462,312.7969 696.0337,312.9375 Q696.4243,313.2031 696.4243,313.6563 Q696.4243,314.0313 696.1587,314.2656 Q695.9087,314.5 695.2993,314.5 L693.0024,314.5 Q692.3931,314.5 692.1274,314.2656 Q691.8618,314.0313 691.8618,313.6406 Q691.8618,313.2656 692.1274,313.0313 Q692.3931,312.7969 693.0024,312.7969 L693.4243,312.7969 L693.0181,311.7656 Z M692.2993,310.0625 L690.9399,306.6875 L689.5649,310.0625 L692.2993,310.0625 Z " fill="#000000"/><text fill="#000000" font-family="sans-serif" font-size="14" font-style="italic" lengthAdjust="spacing" textLength="53.7031" x="711.3306" y="315.7969">Vehiculo</text><line style="stroke:#181818;stroke-width:0.5;" x1="551" x2="892.8643" y1="326" y2="326"/><text fill="#000000" font-family="sans-serif" font-size="14" lengthAdjust="spacing" textLength="331.8643" x="556" y="345.1074">-matricula : String { /* Formato: 4 d&#237;gitos + 3 letras */ }</text><text fill="#000000" font-family="sans-serif" font-size="14" lengthAdjust="spacing" textLength="91.7998" x="556" y="363.7285">-marca : String</text><text fill="#000000" font-family="sans-serif" font-size="14" lengthAdjust="spacing" textLength="98.8203" x="556" y="382.3496">-modelo : String</text><text fill="#000000" font-family="sans-serif" font-size="14" lengthAdjust="spacing" textLength="129.9512" x="556" y="400.9707">-anioFabricacion : int</text><text fill="#000000" font-family="sans-serif" font-size="14" lengthAdjust="spacing" textLength="98.8066" x="556" y="419.5918">-kilometraje : int</text><text fill="#000000" font-family="sans-serif" font-size="14" lengthAdjust="spacing" textLength="96.5029" x="556" y="438.2129">-precio : double</text><text fill="#000000" font-family="sans-serif" font-size="14" lengthAdjust="spacing" textLength="101.9512" x="556" y="456.834">-estado : Estado</text><text fill="#000000" font-family="sans-serif" font-size="14" lengthAdjust="spacing" textLength="164.1992" x="556" y="475.4551">-propietario : Persona, null</text><line style="stroke:#181818;stroke-width:0.5;" x1="551" x2="892.8643" y1="482.9688" y2="482.9688"/><text fill="#000000" font-family="sans-serif" font-size="14" lengthAdjust="spacing" textLength="109.3203" x="556" y="502.0762">+calcularRiesgo()</text><text fill="#000000" font-family="sans-serif" font-size="14" lengthAdjust="spacing" textLength="157.541" x="556" y="520.6973">+imprimirDatosVehiculo()</text><text fill="#000000" font-family="sans-serif" font-size="14" lengthAdjust="spacing" textLength="71.9824" x="556" y="539.3184">+getAnios()</text></g><!--class Coche--><g id="elem_Coche"><rect codeLine="26" fill="#F1F1F1" height="122.4844" id="Coche" rx="2.5" ry="2.5" style="stroke:#181818;stroke-width:0.5;" width="233.7646" x="256" y="155.5"/><ellipse cx="348.3979" cy="171.5" fill="#ADD1B2" rx="11" ry="11" style="stroke:#181818;stroke-width:1.0;"/><path d="M351.1636,167.375 Q351.3198,167.1563 351.5073,167.0469 Q351.6948,166.9375 351.9136,166.9375 Q352.2886,166.9375 352.5229,167.2031 Q352.7573,167.4531 352.7573,168.0625 L352.7573,169.5156 Q352.7573,170.125 352.5229,170.3906 Q352.2886,170.6563 351.9136,170.6563 Q351.5698,170.6563 351.3667,170.4531 Q351.1636,170.2656 351.0542,169.75 Q351.0073,169.3906 350.8198,169.2031 Q350.4917,168.8281 349.8823,168.6094 Q349.2729,168.3906 348.6479,168.3906 Q347.8823,168.3906 347.2417,168.7188 Q346.6167,169.0469 346.1167,169.7969 Q345.6323,170.5469 345.6323,171.5781 L345.6323,172.6719 Q345.6323,173.9063 346.5229,174.7344 Q347.4136,175.5469 349.0073,175.5469 Q349.9448,175.5469 350.6011,175.2969 Q350.9917,175.1406 351.4136,174.7031 Q351.6792,174.4375 351.8198,174.3594 Q351.9761,174.2813 352.1792,174.2813 Q352.5073,174.2813 352.7573,174.5469 Q353.0229,174.7969 353.0229,175.1406 Q353.0229,175.4844 352.6792,175.8906 Q352.1792,176.4688 351.3823,176.7969 Q350.3042,177.25 349.0073,177.25 Q347.4917,177.25 346.2886,176.625 Q345.3042,176.125 344.6167,175.0625 Q343.9292,173.9844 343.9292,172.7031 L343.9292,171.5469 Q343.9292,170.2188 344.5386,169.0781 Q345.1636,167.9219 346.2573,167.3125 Q347.3511,166.6875 348.5854,166.6875 Q349.3198,166.6875 349.9604,166.8594 Q350.6167,167.0156 351.1636,167.375 Z " fill="#000000"/><text fill="#000000" font-family="sans-serif" font-size="14" lengthAdjust="spacing" textLength="40.4688" x="368.8979" y="177.2969">Coche</text><line style="stroke:#181818;stroke-width:0.5;" x1="257" x2="488.7646" y1="187.5" y2="187.5"/><text fill="#000000" font-family="sans-serif" font-size="14" lengthAdjust="spacing" textLength="169.6201" x="262" y="206.6074">-numPuertas : NumPuertas</text><text fill="#000000" font-family="sans-serif" font-size="14" lengthAdjust="spacing" textLength="221.7646" x="262" y="225.2285">-tipoCombustible : TipoCombustible</text><text fill="#000000" font-family="sans-serif" font-size="14" lengthAdjust="spacing" textLength="149.4131" x="262" y="243.8496">-capacidadMaletero : int</text><text fill="#000000" font-family="sans-serif" font-size="14" lengthAdjust="spacing" textLength="119.0342" x="262" y="262.4707">-traccion : Traccion</text><line style="stroke:#181818;stroke-width:0.5;" x1="257" x2="488.7646" y1="269.9844" y2="269.9844"/></g><!--class Moto--><g id="elem_Moto"><rect codeLine="33" fill="#F1F1F1" height="122.4844" id="Moto" rx="2.5" ry="2.5" style="stroke:#181818;stroke-width:0.5;" width="230.6201" x="257.5" y="359.5"/><ellipse cx="352.998" cy="375.5" fill="#ADD1B2" rx="11" ry="11" style="stroke:#181818;stroke-width:1.0;"/><path d="M355.7637,371.375 Q355.9199,371.1563 356.1074,371.0469 Q356.2949,370.9375 356.5137,370.9375 Q356.8887,370.9375 357.123,371.2031 Q357.3574,371.4531 357.3574,372.0625 L357.3574,373.5156 Q357.3574,374.125 357.123,374.3906 Q356.8887,374.6563 356.5137,374.6563 Q356.1699,374.6563 355.9668,374.4531 Q355.7637,374.2656 355.6543,373.75 Q355.6074,373.3906 355.4199,373.2031 Q355.0918,372.8281 354.4824,372.6094 Q353.873,372.3906 353.248,372.3906 Q352.4824,372.3906 351.8418,372.7188 Q351.2168,373.0469 350.7168,373.7969 Q350.2324,374.5469 350.2324,375.5781 L350.2324,376.6719 Q350.2324,377.9063 351.123,378.7344 Q352.0137,379.5469 353.6074,379.5469 Q354.5449,379.5469 355.2012,379.2969 Q355.5918,379.1406 356.0137,378.7031 Q356.2793,378.4375 356.4199,378.3594 Q356.5762,378.2813 356.7793,378.2813 Q357.1074,378.2813 357.3574,378.5469 Q357.623,378.7969 357.623,379.1406 Q357.623,379.4844 357.2793,379.8906 Q356.7793,380.4688 355.9824,380.7969 Q354.9043,381.25 353.6074,381.25 Q352.0918,381.25 350.8887,380.625 Q349.9043,380.125 349.2168,379.0625 Q348.5293,377.9844 348.5293,376.7031 L348.5293,375.5469 Q348.5293,374.2188 349.1387,373.0781 Q349.7637,371.9219 350.8574,371.3125 Q351.9512,370.6875 353.1855,370.6875 Q353.9199,370.6875 354.5605,370.8594 Q355.2168,371.0156 355.7637,371.375 Z " fill="#000000"/><text fill="#000000" font-family="sans-serif" font-size="14" lengthAdjust="spacing" textLength="31.124" x="373.498" y="381.2969">Moto</text><line style="stroke:#181818;stroke-width:0.5;" x1="258.5" x2="487.1201" y1="391.5" y2="391.5"/><text fill="#000000" font-family="sans-serif" font-size="14" lengthAdjust="spacing" textLength="91.041" x="263.5" y="410.6074">-cilindrada : int</text><text fill="#000000" font-family="sans-serif" font-size="14" lengthAdjust="spacing" textLength="61.4756" x="263.5" y="429.2285">-peso : int</text><text fill="#000000" font-family="sans-serif" font-size="14" lengthAdjust="spacing" textLength="140.0889" x="263.5" y="447.8496">-alturaAsiento : double</text><text fill="#000000" font-family="sans-serif" font-size="14" lengthAdjust="spacing" textLength="218.6201" x="263.5" y="466.4707">-tipoTransmision : TipoTransmision</text><line style="stroke:#181818;stroke-width:0.5;" x1="258.5" x2="487.1201" y1="473.9844" y2="473.9844"/></g><!--class Camion--><g id="elem_Camion"><rect codeLine="40" fill="#F1F1F1" height="122.4844" id="Camion" rx="2.5" ry="2.5" style="stroke:#181818;stroke-width:0.5;" width="183.2266" x="281.5" y="516.5"/><ellipse cx="344.7427" cy="532.5" fill="#ADD1B2" rx="11" ry="11" style="stroke:#181818;stroke-width:1.0;"/><path d="M347.5083,528.375 Q347.6646,528.1563 347.8521,528.0469 Q348.0396,527.9375 348.2583,527.9375 Q348.6333,527.9375 348.8677,528.2031 Q349.1021,528.4531 349.1021,529.0625 L349.1021,530.5156 Q349.1021,531.125 348.8677,531.3906 Q348.6333,531.6563 348.2583,531.6563 Q347.9146,531.6563 347.7114,531.4531 Q347.5083,531.2656 347.3989,530.75 Q347.3521,530.3906 347.1646,530.2031 Q346.8364,529.8281 346.2271,529.6094 Q345.6177,529.3906 344.9927,529.3906 Q344.2271,529.3906 343.5864,529.7188 Q342.9614,530.0469 342.4614,530.7969 Q341.9771,531.5469 341.9771,532.5781 L341.9771,533.6719 Q341.9771,534.9063 342.8677,535.7344 Q343.7583,536.5469 345.3521,536.5469 Q346.2896,536.5469 346.9458,536.2969 Q347.3364,536.1406 347.7583,535.7031 Q348.0239,535.4375 348.1646,535.3594 Q348.3208,535.2813 348.5239,535.2813 Q348.8521,535.2813 349.1021,535.5469 Q349.3677,535.7969 349.3677,536.1406 Q349.3677,536.4844 349.0239,536.8906 Q348.5239,537.4688 347.7271,537.7969 Q346.6489,538.25 345.3521,538.25 Q343.8364,538.25 342.6333,537.625 Q341.6489,537.125 340.9614,536.0625 Q340.2739,534.9844 340.2739,533.7031 L340.2739,532.5469 Q340.2739,531.2188 340.8833,530.0781 Q341.5083,528.9219 342.6021,528.3125 Q343.6958,527.6875 344.9302,527.6875 Q345.6646,527.6875 346.3052,527.8594 Q346.9614,528.0156 347.5083,528.375 Z " fill="#000000"/><text fill="#000000" font-family="sans-serif" font-size="14" lengthAdjust="spacing" textLength="48.2412" x="365.2427" y="538.2969">Camion</text><line style="stroke:#181818;stroke-width:0.5;" x1="282.5" x2="463.7266" y1="548.5" y2="548.5"/><text fill="#000000" font-family="sans-serif" font-size="14" lengthAdjust="spacing" textLength="160.3301" x="287.5" y="567.6074">-capacidadCarga : double</text><text fill="#000000" font-family="sans-serif" font-size="14" lengthAdjust="spacing" textLength="85.5859" x="287.5" y="586.2285">-numEjes : int</text><text fill="#000000" font-family="sans-serif" font-size="14" lengthAdjust="spacing" textLength="171.2266" x="287.5" y="604.8496">-longitudRemolque : double</text><text fill="#000000" font-family="sans-serif" font-size="14" lengthAdjust="spacing" textLength="119.834" x="287.5" y="623.4707">-potenciaMotor : int</text><line style="stroke:#181818;stroke-width:0.5;" x1="282.5" x2="463.7266" y1="630.9844" y2="630.9844"/></g><!--class Sedan--><g id="elem_Sedan"><rect codeLine="47" fill="#F1F1F1" height="85.2422" id="Sedan" rx="2.5" ry="2.5" style="stroke:#181818;stroke-width:0.5;" width="180.0615" x="11.5" y="7"/><ellipse cx="77.0396" cy="23" fill="#ADD1B2" rx="11" ry="11" style="stroke:#181818;stroke-width:1.0;"/><path d="M79.8052,18.875 Q79.9614,18.6563 80.1489,18.5469 Q80.3364,18.4375 80.5552,18.4375 Q80.9302,18.4375 81.1646,18.7031 Q81.3989,18.9531 81.3989,19.5625 L81.3989,21.0156 Q81.3989,21.625 81.1646,21.8906 Q80.9302,22.1563 80.5552,22.1563 Q80.2114,22.1563 80.0083,21.9531 Q79.8052,21.7656 79.6958,21.25 Q79.6489,20.8906 79.4614,20.7031 Q79.1333,20.3281 78.5239,20.1094 Q77.9146,19.8906 77.2896,19.8906 Q76.5239,19.8906 75.8833,20.2188 Q75.2583,20.5469 74.7583,21.2969 Q74.2739,22.0469 74.2739,23.0781 L74.2739,24.1719 Q74.2739,25.4063 75.1646,26.2344 Q76.0552,27.0469 77.6489,27.0469 Q78.5864,27.0469 79.2427,26.7969 Q79.6333,26.6406 80.0552,26.2031 Q80.3208,25.9375 80.4614,25.8594 Q80.6177,25.7813 80.8208,25.7813 Q81.1489,25.7813 81.3989,26.0469 Q81.6646,26.2969 81.6646,26.6406 Q81.6646,26.9844 81.3208,27.3906 Q80.8208,27.9688 80.0239,28.2969 Q78.9458,28.75 77.6489,28.75 Q76.1333,28.75 74.9302,28.125 Q73.9458,27.625 73.2583,26.5625 Q72.5708,25.4844 72.5708,24.2031 L72.5708,23.0469 Q72.5708,21.7188 73.1802,20.5781 Q73.8052,19.4219 74.8989,18.8125 Q75.9927,18.1875 77.2271,18.1875 Q77.9614,18.1875 78.6021,18.3594 Q79.2583,18.5156 79.8052,18.875 Z " fill="#000000"/><text fill="#000000" font-family="sans-serif" font-size="14" lengthAdjust="spacing" textLength="40.4824" x="97.5396" y="28.7969">Sedan</text><line style="stroke:#181818;stroke-width:0.5;" x1="12.5" x2="190.5615" y1="39" y2="39"/><text fill="#000000" font-family="sans-serif" font-size="14" lengthAdjust="spacing" textLength="150.1992" x="17.5" y="58.1074">-espacioInterior : double</text><text fill="#000000" font-family="sans-serif" font-size="14" lengthAdjust="spacing" textLength="168.0615" x="17.5" y="76.7285">-nivelConfort : NivelConfort</text><line style="stroke:#181818;stroke-width:0.5;" x1="12.5" x2="190.5615" y1="84.2422" y2="84.2422"/></g><!--class SUV--><g id="elem_SUV"><rect codeLine="52" fill="#F1F1F1" height="85.2422" id="SUV" rx="2.5" ry="2.5" style="stroke:#181818;stroke-width:0.5;" width="188.6748" x="7" y="127"/><ellipse cx="82.6943" cy="143" fill="#ADD1B2" rx="11" ry="11" style="stroke:#181818;stroke-width:1.0;"/><path d="M85.46,138.875 Q85.6162,138.6563 85.8037,138.5469 Q85.9912,138.4375 86.21,138.4375 Q86.585,138.4375 86.8193,138.7031 Q87.0537,138.9531 87.0537,139.5625 L87.0537,141.0156 Q87.0537,141.625 86.8193,141.8906 Q86.585,142.1563 86.21,142.1563 Q85.8662,142.1563 85.6631,141.9531 Q85.46,141.7656 85.3506,141.25 Q85.3037,140.8906 85.1162,140.7031 Q84.7881,140.3281 84.1787,140.1094 Q83.5693,139.8906 82.9443,139.8906 Q82.1787,139.8906 81.5381,140.2188 Q80.9131,140.5469 80.4131,141.2969 Q79.9287,142.0469 79.9287,143.0781 L79.9287,144.1719 Q79.9287,145.4063 80.8193,146.2344 Q81.71,147.0469 83.3037,147.0469 Q84.2412,147.0469 84.8975,146.7969 Q85.2881,146.6406 85.71,146.2031 Q85.9756,145.9375 86.1162,145.8594 Q86.2725,145.7813 86.4756,145.7813 Q86.8037,145.7813 87.0537,146.0469 Q87.3193,146.2969 87.3193,146.6406 Q87.3193,146.9844 86.9756,147.3906 Q86.4756,147.9688 85.6787,148.2969 Q84.6006,148.75 83.3037,148.75 Q81.7881,148.75 80.585,148.125 Q79.6006,147.625 78.9131,146.5625 Q78.2256,145.4844 78.2256,144.2031 L78.2256,143.0469 Q78.2256,141.7188 78.835,140.5781 Q79.46,139.4219 80.5537,138.8125 Q81.6475,138.1875 82.8818,138.1875 Q83.6162,138.1875 84.2568,138.3594 Q84.9131,138.5156 85.46,138.875 Z " fill="#000000"/><text fill="#000000" font-family="sans-serif" font-size="14" lengthAdjust="spacing" textLength="28.7861" x="103.1943" y="148.7969">SUV</text><line style="stroke:#181818;stroke-width:0.5;" x1="8" x2="194.6748" y1="159" y2="159"/><text fill="#000000" font-family="sans-serif" font-size="14" lengthAdjust="spacing" textLength="176.6748" x="13" y="178.1074">-capacidadOffroad : boolean</text><text fill="#000000" font-family="sans-serif" font-size="14" lengthAdjust="spacing" textLength="160.3301" x="13" y="196.7285">-alturaLibreSuelo : double</text><line style="stroke:#181818;stroke-width:0.5;" x1="8" x2="194.6748" y1="204.2422" y2="204.2422"/></g><!--class Deportivo--><g id="elem_Deportivo"><rect codeLine="57" fill="#F1F1F1" height="103.8633" id="Deportivo" rx="2.5" ry="2.5" style="stroke:#181818;stroke-width:0.5;" width="180.9023" x="11" y="247.5"/><ellipse cx="67.2427" cy="263.5" fill="#ADD1B2" rx="11" ry="11" style="stroke:#181818;stroke-width:1.0;"/><path d="M70.0083,259.375 Q70.1646,259.1563 70.3521,259.0469 Q70.5396,258.9375 70.7583,258.9375 Q71.1333,258.9375 71.3677,259.2031 Q71.6021,259.4531 71.6021,260.0625 L71.6021,261.5156 Q71.6021,262.125 71.3677,262.3906 Q71.1333,262.6563 70.7583,262.6563 Q70.4146,262.6563 70.2114,262.4531 Q70.0083,262.2656 69.8989,261.75 Q69.8521,261.3906 69.6646,261.2031 Q69.3364,260.8281 68.7271,260.6094 Q68.1177,260.3906 67.4927,260.3906 Q66.7271,260.3906 66.0864,260.7188 Q65.4614,261.0469 64.9614,261.7969 Q64.4771,262.5469 64.4771,263.5781 L64.4771,264.6719 Q64.4771,265.9063 65.3677,266.7344 Q66.2583,267.5469 67.8521,267.5469 Q68.7896,267.5469 69.4458,267.2969 Q69.8364,267.1406 70.2583,266.7031 Q70.5239,266.4375 70.6646,266.3594 Q70.8208,266.2813 71.0239,266.2813 Q71.3521,266.2813 71.6021,266.5469 Q71.8677,266.7969 71.8677,267.1406 Q71.8677,267.4844 71.5239,267.8906 Q71.0239,268.4688 70.2271,268.7969 Q69.1489,269.25 67.8521,269.25 Q66.3364,269.25 65.1333,268.625 Q64.1489,268.125 63.4614,267.0625 Q62.7739,265.9844 62.7739,264.7031 L62.7739,263.5469 Q62.7739,262.2188 63.3833,261.0781 Q64.0083,259.9219 65.1021,259.3125 Q66.1958,258.6875 67.4302,258.6875 Q68.1646,258.6875 68.8052,258.8594 Q69.4614,259.0156 70.0083,259.375 Z " fill="#000000"/><text fill="#000000" font-family="sans-serif" font-size="14" lengthAdjust="spacing" textLength="59.917" x="87.7427" y="269.2969">Deportivo</text><line style="stroke:#181818;stroke-width:0.5;" x1="12" x2="190.9023" y1="279.5" y2="279.5"/><text fill="#000000" font-family="sans-serif" font-size="14" lengthAdjust="spacing" textLength="168.9023" x="17" y="298.6074">-aceleracion0a100 : double</text><text fill="#000000" font-family="sans-serif" font-size="14" lengthAdjust="spacing" textLength="103.4961" x="17" y="317.2285">-potenciaCV : int</text><text fill="#000000" font-family="sans-serif" font-size="14" lengthAdjust="spacing" textLength="162.6611" x="17" y="335.8496">-tieneModoPista : boolean</text><line style="stroke:#181818;stroke-width:0.5;" x1="12" x2="190.9023" y1="343.3633" y2="343.3633"/></g><!--class Scooter--><g id="elem_Scooter"><rect codeLine="63" fill="#F1F1F1" height="66.6211" id="Scooter" rx="2.5" ry="2.5" style="stroke:#181818;stroke-width:0.5;" width="166.0889" x="18.5" y="387"/><ellipse cx="73.1704" cy="403" fill="#ADD1B2" rx="11" ry="11" style="stroke:#181818;stroke-width:1.0;"/><path d="M75.936,398.875 Q76.0923,398.6563 76.2798,398.5469 Q76.4673,398.4375 76.686,398.4375 Q77.061,398.4375 77.2954,398.7031 Q77.5298,398.9531 77.5298,399.5625 L77.5298,401.0156 Q77.5298,401.625 77.2954,401.8906 Q77.061,402.1563 76.686,402.1563 Q76.3423,402.1563 76.1392,401.9531 Q75.936,401.7656 75.8267,401.25 Q75.7798,400.8906 75.5923,400.7031 Q75.2642,400.3281 74.6548,400.1094 Q74.0454,399.8906 73.4204,399.8906 Q72.6548,399.8906 72.0142,400.2188 Q71.3892,400.5469 70.8892,401.2969 Q70.4048,402.0469 70.4048,403.0781 L70.4048,404.1719 Q70.4048,405.4063 71.2954,406.2344 Q72.186,407.0469 73.7798,407.0469 Q74.7173,407.0469 75.3735,406.7969 Q75.7642,406.6406 76.186,406.2031 Q76.4517,405.9375 76.5923,405.8594 Q76.7485,405.7813 76.9517,405.7813 Q77.2798,405.7813 77.5298,406.0469 Q77.7954,406.2969 77.7954,406.6406 Q77.7954,406.9844 77.4517,407.3906 Q76.9517,407.9688 76.1548,408.2969 Q75.0767,408.75 73.7798,408.75 Q72.2642,408.75 71.061,408.125 Q70.0767,407.625 69.3892,406.5625 Q68.7017,405.4844 68.7017,404.2031 L68.7017,403.0469 Q68.7017,401.7188 69.311,400.5781 Q69.936,399.4219 71.0298,398.8125 Q72.1235,398.1875 73.3579,398.1875 Q74.0923,398.1875 74.7329,398.3594 Q75.3892,398.5156 75.936,398.875 Z " fill="#000000"/><text fill="#000000" font-family="sans-serif" font-size="14" lengthAdjust="spacing" textLength="48.248" x="93.6704" y="408.7969">Scooter</text><line style="stroke:#181818;stroke-width:0.5;" x1="19.5" x2="183.5889" y1="419" y2="419"/><text fill="#000000" font-family="sans-serif" font-size="14" lengthAdjust="spacing" textLength="154.0889" x="24.5" y="438.1074">-espacioBajoAsiento : int</text><line style="stroke:#181818;stroke-width:0.5;" x1="19.5" x2="183.5889" y1="445.6211" y2="445.6211"/></g><!--class Deportiva--><g id="elem_Deportiva"><rect codeLine="67" fill="#F1F1F1" height="85.2422" id="Deportiva" rx="2.5" ry="2.5" style="stroke:#181818;stroke-width:0.5;" width="184.7646" x="9" y="489"/><ellipse cx="67.1738" cy="505" fill="#ADD1B2" rx="11" ry="11" style="stroke:#181818;stroke-width:1.0;"/><path d="M69.9395,500.875 Q70.0957,500.6563 70.2832,500.5469 Q70.4707,500.4375 70.6895,500.4375 Q71.0645,500.4375 71.2988,500.7031 Q71.5332,500.9531 71.5332,501.5625 L71.5332,503.0156 Q71.5332,503.625 71.2988,503.8906 Q71.0645,504.1563 70.6895,504.1563 Q70.3457,504.1563 70.1426,503.9531 Q69.9395,503.7656 69.8301,503.25 Q69.7832,502.8906 69.5957,502.7031 Q69.2676,502.3281 68.6582,502.1094 Q68.0488,501.8906 67.4238,501.8906 Q66.6582,501.8906 66.0176,502.2188 Q65.3926,502.5469 64.8926,503.2969 Q64.4082,504.0469 64.4082,505.0781 L64.4082,506.1719 Q64.4082,507.4063 65.2988,508.2344 Q66.1895,509.0469 67.7832,509.0469 Q68.7207,509.0469 69.377,508.7969 Q69.7676,508.6406 70.1895,508.2031 Q70.4551,507.9375 70.5957,507.8594 Q70.752,507.7813 70.9551,507.7813 Q71.2832,507.7813 71.5332,508.0469 Q71.7988,508.2969 71.7988,508.6406 Q71.7988,508.9844 71.4551,509.3906 Q70.9551,509.9688 70.1582,510.2969 Q69.0801,510.75 67.7832,510.75 Q66.2676,510.75 65.0645,510.125 Q64.0801,509.625 63.3926,508.5625 Q62.7051,507.4844 62.7051,506.2031 L62.7051,505.0469 Q62.7051,503.7188 63.3145,502.5781 Q63.9395,501.4219 65.0332,500.8125 Q66.127,500.1875 67.3613,500.1875 Q68.0957,500.1875 68.7363,500.3594 Q69.3926,500.5156 69.9395,500.875 Z " fill="#000000"/><text fill="#000000" font-family="sans-serif" font-size="14" lengthAdjust="spacing" textLength="59.917" x="87.6738" y="510.7969">Deportiva</text><line style="stroke:#181818;stroke-width:0.5;" x1="10" x2="192.7646" y1="521" y2="521"/><text fill="#000000" font-family="sans-serif" font-size="14" lengthAdjust="spacing" textLength="166.5303" x="15" y="540.1074">-velocidadMaxima : double</text><text fill="#000000" font-family="sans-serif" font-size="14" lengthAdjust="spacing" textLength="172.7646" x="15" y="558.7285">-tieneQuickShifter : boolean</text><line style="stroke:#181818;stroke-width:0.5;" x1="10" x2="192.7646" y1="566.2422" y2="566.2422"/></g><!--class Validar--><g id="elem_Validar"><rect codeLine="72" fill="#F1F1F1" height="85.2422" id="Validar" rx="2.5" ry="2.5" style="stroke:#181818;stroke-width:0.5;" width="286.2852" x="1307" y="316"/><ellipse cx="1424.103" cy="332" fill="#ADD1B2" rx="11" ry="11" style="stroke:#181818;stroke-width:1.0;"/><path d="M1426.8687,327.875 Q1427.0249,327.6563 1427.2124,327.5469 Q1427.3999,327.4375 1427.6187,327.4375 Q1427.9937,327.4375 1428.228,327.7031 Q1428.4624,327.9531 1428.4624,328.5625 L1428.4624,330.0156 Q1428.4624,330.625 1428.228,330.8906 Q1427.9937,331.1563 1427.6187,331.1563 Q1427.2749,331.1563 1427.0718,330.9531 Q1426.8687,330.7656 1426.7593,330.25 Q1426.7124,329.8906 1426.5249,329.7031 Q1426.1968,329.3281 1425.5874,329.1094 Q1424.978,328.8906 1424.353,328.8906 Q1423.5874,328.8906 1422.9468,329.2188 Q1422.3218,329.5469 1421.8218,330.2969 Q1421.3374,331.0469 1421.3374,332.0781 L1421.3374,333.1719 Q1421.3374,334.4063 1422.228,335.2344 Q1423.1187,336.0469 1424.7124,336.0469 Q1425.6499,336.0469 1426.3062,335.7969 Q1426.6968,335.6406 1427.1187,335.2031 Q1427.3843,334.9375 1427.5249,334.8594 Q1427.6812,334.7813 1427.8843,334.7813 Q1428.2124,334.7813 1428.4624,335.0469 Q1428.728,335.2969 1428.728,335.6406 Q1428.728,335.9844 1428.3843,336.3906 Q1427.8843,336.9688 1427.0874,337.2969 Q1426.0093,337.75 1424.7124,337.75 Q1423.1968,337.75 1421.9937,337.125 Q1421.0093,336.625 1420.3218,335.5625 Q1419.6343,334.4844 1419.6343,333.2031 L1419.6343,332.0469 Q1419.6343,330.7188 1420.2437,329.5781 Q1420.8687,328.4219 1421.9624,327.8125 Q1423.0562,327.1875 1424.2905,327.1875 Q1425.0249,327.1875 1425.6655,327.3594 Q1426.3218,327.5156 1426.8687,327.875 Z " fill="#000000"/><text fill="#000000" font-family="sans-serif" font-size="14" lengthAdjust="spacing" textLength="43.5791" x="1444.603" y="337.7969">Validar</text><line style="stroke:#181818;stroke-width:0.5;" x1="1308" x2="1592.2852" y1="348" y2="348"/><line style="stroke:#181818;stroke-width:0.5;" x1="1308" x2="1592.2852" y1="356" y2="356"/><text fill="#000000" font-family="sans-serif" font-size="14" lengthAdjust="spacing" textLength="203.4922" x="1313" y="375.1074">+validarDNI(dni: String): boolean</text><text fill="#000000" font-family="sans-serif" font-size="14" lengthAdjust="spacing" textLength="274.2852" x="1313" y="393.7285">+validarMatricula(matricula: String): boolean</text></g><!--class Valorable--><g id="elem_Valorable"><rect codeLine="77" fill="#F1F1F1" height="66.6211" id="Valorable" rx="2.5" ry="2.5" style="stroke:#181818;stroke-width:0.5;" width="159.4512" x="1021" y="474"/><ellipse cx="1066.8999" cy="490" fill="#B4A7E5" rx="11" ry="11" style="stroke:#181818;stroke-width:1.0;"/><path d="M1067.853,486.6406 L1067.853,493.2969 L1069.5718,493.2969 Q1070.1812,493.2969 1070.4468,493.5313 Q1070.7124,493.7656 1070.7124,494.1563 Q1070.7124,494.5313 1070.4468,494.7656 Q1070.1812,495 1069.5718,495 L1064.4312,495 Q1063.8218,495 1063.5562,494.7656 Q1063.2905,494.5313 1063.2905,494.1406 Q1063.2905,493.7656 1063.5562,493.5313 Q1063.8218,493.2969 1064.4312,493.2969 L1066.1499,493.2969 L1066.1499,486.6406 L1064.4312,486.6406 Q1063.8218,486.6406 1063.5562,486.4063 Q1063.2905,486.1719 1063.2905,485.7813 Q1063.2905,485.4063 1063.5562,485.1719 Q1063.8218,484.9375 1064.4312,484.9375 L1069.5718,484.9375 Q1070.1812,484.9375 1070.4468,485.1719 Q1070.7124,485.4063 1070.7124,485.7813 Q1070.7124,486.1719 1070.4468,486.4063 Q1070.1812,486.6406 1069.5718,486.6406 L1067.853,486.6406 Z " fill="#000000"/><text fill="#000000" font-family="sans-serif" font-size="14" font-style="italic" lengthAdjust="spacing" textLength="59.1514" x="1087.3999" y="495.7969">Valorable</text><line style="stroke:#181818;stroke-width:0.5;" x1="1022" x2="1179.4512" y1="506" y2="506"/><line style="stroke:#181818;stroke-width:0.5;" x1="1022" x2="1179.4512" y1="514" y2="514"/><text fill="#000000" font-family="sans-serif" font-size="14" lengthAdjust="spacing" textLength="147.4512" x="1027" y="533.1074">+calcularDepreciacion()</text></g><!--class Estado--><g id="elem_Estado"><rect codeLine="81" fill="#F1F1F1" height="85.2422" id="Estado" rx="2.5" ry="2.5" style="stroke:#181818;stroke-width:0.5;" width="96.0273" x="53.5" y="683"/><ellipse cx="77.6986" cy="699" fill="#EB937F" rx="11" ry="11" style="stroke:#181818;stroke-width:1.0;"/><path d="M76.558,699.7969 L76.558,702.2969 L80.8861,702.2969 L80.8861,701.375 Q80.8861,700.7656 81.1205,700.5 Q81.3705,700.2344 81.7455,700.2344 Q82.1205,700.2344 82.3549,700.5 Q82.5893,700.7656 82.5893,701.375 L82.5893,704 L74.5893,704 Q73.9643,704 73.6986,703.7656 Q73.4486,703.5313 73.4486,703.1406 Q73.4486,702.7656 73.7143,702.5313 Q73.9799,702.2969 74.5893,702.2969 L74.8549,702.2969 L74.8549,695.6406 L74.5893,695.6406 Q73.9643,695.6406 73.6986,695.4063 Q73.4486,695.1719 73.4486,694.7813 Q73.4486,694.4063 73.6986,694.1719 Q73.9643,693.9375 74.5893,693.9375 L82.2143,693.9375 L82.2143,696.5313 Q82.2143,697.1406 81.9799,697.4063 Q81.7611,697.6563 81.3705,697.6563 Q80.9955,697.6563 80.7611,697.4063 Q80.5268,697.1406 80.5268,696.5313 L80.5268,695.6406 L76.558,695.6406 L76.558,698.0938 L78.0424,698.0938 Q78.0424,697.4375 78.1674,697.25 Q78.433,696.8438 78.9018,696.8438 Q79.2768,696.8438 79.5111,697.1094 Q79.7455,697.3594 79.7455,697.9688 L79.7455,699.9375 Q79.7455,700.4844 79.6205,700.6719 Q79.3549,701.0625 78.9018,701.0625 Q78.433,701.0625 78.1674,700.6563 Q78.0424,700.4688 78.0424,699.7969 L76.558,699.7969 Z " fill="#000000"/><text fill="#000000" font-family="sans-serif" font-size="14" lengthAdjust="spacing" textLength="43.5859" x="93.7428" y="704.7969">Estado</text><line style="stroke:#181818;stroke-width:0.5;" x1="54.5" x2="148.5273" y1="715" y2="715"/><text fill="#000000" font-family="sans-serif" font-size="14" lengthAdjust="spacing" textLength="84.0273" x="59.5" y="734.1074">DISPONIBLE</text><text fill="#000000" font-family="sans-serif" font-size="14" lengthAdjust="spacing" textLength="63.7861" x="59.5" y="752.7285">VENDIDO</text><line style="stroke:#181818;stroke-width:0.5;" x1="54.5" x2="148.5273" y1="760.2422" y2="760.2422"/></g><!--class NumPuertas--><g id="elem_NumPuertas"><rect codeLine="86" fill="#F1F1F1" height="85.2422" id="NumPuertas" rx="2.5" ry="2.5" style="stroke:#181818;stroke-width:0.5;" width="109.8066" x="46.5" y="803"/><ellipse cx="61.5" cy="819" fill="#EB937F" rx="11" ry="11" style="stroke:#181818;stroke-width:1.0;"/><path d="M60.3594,819.7969 L60.3594,822.2969 L64.6875,822.2969 L64.6875,821.375 Q64.6875,820.7656 64.9219,820.5 Q65.1719,820.2344 65.5469,820.2344 Q65.9219,820.2344 66.1563,820.5 Q66.3906,820.7656 66.3906,821.375 L66.3906,824 L58.3906,824 Q57.7656,824 57.5,823.7656 Q57.25,823.5313 57.25,823.1406 Q57.25,822.7656 57.5156,822.5313 Q57.7813,822.2969 58.3906,822.2969 L58.6563,822.2969 L58.6563,815.6406 L58.3906,815.6406 Q57.7656,815.6406 57.5,815.4063 Q57.25,815.1719 57.25,814.7813 Q57.25,814.4063 57.5,814.1719 Q57.7656,813.9375 58.3906,813.9375 L66.0156,813.9375 L66.0156,816.5313 Q66.0156,817.1406 65.7813,817.4063 Q65.5625,817.6563 65.1719,817.6563 Q64.7969,817.6563 64.5625,817.4063 Q64.3281,817.1406 64.3281,816.5313 L64.3281,815.6406 L60.3594,815.6406 L60.3594,818.0938 L61.8438,818.0938 Q61.8438,817.4375 61.9688,817.25 Q62.2344,816.8438 62.7031,816.8438 Q63.0781,816.8438 63.3125,817.1094 Q63.5469,817.3594 63.5469,817.9688 L63.5469,819.9375 Q63.5469,820.4844 63.4219,820.6719 Q63.1563,821.0625 62.7031,821.0625 Q62.2344,821.0625 61.9688,820.6563 Q61.8438,820.4688 61.8438,819.7969 L60.3594,819.7969 Z " fill="#000000"/><text fill="#000000" font-family="sans-serif" font-size="14" lengthAdjust="spacing" textLength="77.8066" x="75.5" y="824.7969">NumPuertas</text><line style="stroke:#181818;stroke-width:0.5;" x1="47.5" x2="155.3066" y1="835" y2="835"/><text fill="#000000" font-family="sans-serif" font-size="14" lengthAdjust="spacing" textLength="7.7861" x="52.5" y="854.1074">3</text><text fill="#000000" font-family="sans-serif" font-size="14" lengthAdjust="spacing" textLength="7.7861" x="52.5" y="872.7285">5</text><line style="stroke:#181818;stroke-width:0.5;" x1="47.5" x2="155.3066" y1="880.2422" y2="880.2422"/></g><!--class TipoCombustible--><g id="elem_TipoCombustible"><rect codeLine="91" fill="#F1F1F1" height="122.4844" id="TipoCombustible" rx="2.5" ry="2.5" style="stroke:#181818;stroke-width:0.5;" width="137.0479" x="33" y="923.5"/><ellipse cx="48" cy="939.5" fill="#EB937F" rx="11" ry="11" style="stroke:#181818;stroke-width:1.0;"/><path d="M46.8594,940.2969 L46.8594,942.7969 L51.1875,942.7969 L51.1875,941.875 Q51.1875,941.2656 51.4219,941 Q51.6719,940.7344 52.0469,940.7344 Q52.4219,940.7344 52.6563,941 Q52.8906,941.2656 52.8906,941.875 L52.8906,944.5 L44.8906,944.5 Q44.2656,944.5 44,944.2656 Q43.75,944.0313 43.75,943.6406 Q43.75,943.2656 44.0156,943.0313 Q44.2813,942.7969 44.8906,942.7969 L45.1563,942.7969 L45.1563,936.1406 L44.8906,936.1406 Q44.2656,936.1406 44,935.9063 Q43.75,935.6719 43.75,935.2813 Q43.75,934.9063 44,934.6719 Q44.2656,934.4375 44.8906,934.4375 L52.5156,934.4375 L52.5156,937.0313 Q52.5156,937.6406 52.2813,937.9063 Q52.0625,938.1563 51.6719,938.1563 Q51.2969,938.1563 51.0625,937.9063 Q50.8281,937.6406 50.8281,937.0313 L50.8281,936.1406 L46.8594,936.1406 L46.8594,938.5938 L48.3438,938.5938 Q48.3438,937.9375 48.4688,937.75 Q48.7344,937.3438 49.2031,937.3438 Q49.5781,937.3438 49.8125,937.6094 Q50.0469,937.8594 50.0469,938.4688 L50.0469,940.4375 Q50.0469,940.9844 49.9219,941.1719 Q49.6563,941.5625 49.2031,941.5625 Q48.7344,941.5625 48.4688,941.1563 Q48.3438,940.9688 48.3438,940.2969 L46.8594,940.2969 Z " fill="#000000"/><text fill="#000000" font-family="sans-serif" font-size="14" lengthAdjust="spacing" textLength="105.0479" x="62" y="945.2969">TipoCombustible</text><line style="stroke:#181818;stroke-width:0.5;" x1="34" x2="169.0479" y1="955.5" y2="955.5"/><text fill="#000000" font-family="sans-serif" font-size="14" lengthAdjust="spacing" textLength="71.5791" x="39" y="974.6074">GASOLINA</text><text fill="#000000" font-family="sans-serif" font-size="14" lengthAdjust="spacing" textLength="49.7998" x="39" y="993.2285">DIESEL</text><text fill="#000000" font-family="sans-serif" font-size="14" lengthAdjust="spacing" textLength="58.3379" x="39" y="1011.8496">HIBRIDO</text><text fill="#000000" font-family="sans-serif" font-size="14" lengthAdjust="spacing" textLength="80.124" x="39" y="1030.4707">ELECTRICO</text><line style="stroke:#181818;stroke-width:0.5;" x1="34" x2="169.0479" y1="1037.9844" y2="1037.9844"/></g><!--class Traccion--><g id="elem_Traccion"><rect codeLine="98" fill="#F1F1F1" height="103.8633" id="Traccion" rx="2.5" ry="2.5" style="stroke:#181818;stroke-width:0.5;" width="96.0205" x="325" y="673.5"/><ellipse cx="344.6521" cy="689.5" fill="#EB937F" rx="11" ry="11" style="stroke:#181818;stroke-width:1.0;"/><path d="M343.5114,690.2969 L343.5114,692.7969 L347.8396,692.7969 L347.8396,691.875 Q347.8396,691.2656 348.0739,691 Q348.3239,690.7344 348.6989,690.7344 Q349.0739,690.7344 349.3083,691 Q349.5427,691.2656 349.5427,691.875 L349.5427,694.5 L341.5427,694.5 Q340.9177,694.5 340.6521,694.2656 Q340.4021,694.0313 340.4021,693.6406 Q340.4021,693.2656 340.6677,693.0313 Q340.9333,692.7969 341.5427,692.7969 L341.8083,692.7969 L341.8083,686.1406 L341.5427,686.1406 Q340.9177,686.1406 340.6521,685.9063 Q340.4021,685.6719 340.4021,685.2813 Q340.4021,684.9063 340.6521,684.6719 Q340.9177,684.4375 341.5427,684.4375 L349.1677,684.4375 L349.1677,687.0313 Q349.1677,687.6406 348.9333,687.9063 Q348.7146,688.1563 348.3239,688.1563 Q347.9489,688.1563 347.7146,687.9063 Q347.4802,687.6406 347.4802,687.0313 L347.4802,686.1406 L343.5114,686.1406 L343.5114,688.5938 L344.9958,688.5938 Q344.9958,687.9375 345.1208,687.75 Q345.3864,687.3438 345.8552,687.3438 Q346.2302,687.3438 346.4646,687.6094 Q346.6989,687.8594 346.6989,688.4688 L346.6989,690.4375 Q346.6989,690.9844 346.5739,691.1719 Q346.3083,691.5625 345.8552,691.5625 Q345.3864,691.5625 345.1208,691.1563 Q344.9958,690.9688 344.9958,690.2969 L343.5114,690.2969 Z " fill="#000000"/><text fill="#000000" font-family="sans-serif" font-size="14" lengthAdjust="spacing" textLength="53.6826" x="359.6858" y="695.2969">Traccion</text><line style="stroke:#181818;stroke-width:0.5;" x1="326" x2="420.0205" y1="705.5" y2="705.5"/><text fill="#000000" font-family="sans-serif" font-size="14" lengthAdjust="spacing" textLength="84.0205" x="331" y="724.6074">DELANTERA</text><text fill="#000000" font-family="sans-serif" font-size="14" lengthAdjust="spacing" textLength="66.124" x="331" y="743.2285">TRASERA</text><text fill="#000000" font-family="sans-serif" font-size="14" lengthAdjust="spacing" textLength="24.9102" x="331" y="761.8496">4X4</text><line style="stroke:#181818;stroke-width:0.5;" x1="326" x2="420.0205" y1="769.3633" y2="769.3633"/></g><!--class NivelConfort--><g id="elem_NivelConfort"><rect codeLine="104" fill="#F1F1F1" height="103.8633" id="NivelConfort" rx="2.5" ry="2.5" style="stroke:#181818;stroke-width:0.5;" width="109.0273" x="318.5" y="812.5"/><ellipse cx="333.5" cy="828.5" fill="#EB937F" rx="11" ry="11" style="stroke:#181818;stroke-width:1.0;"/><path d="M332.3594,829.2969 L332.3594,831.7969 L336.6875,831.7969 L336.6875,830.875 Q336.6875,830.2656 336.9219,830 Q337.1719,829.7344 337.5469,829.7344 Q337.9219,829.7344 338.1563,830 Q338.3906,830.2656 338.3906,830.875 L338.3906,833.5 L330.3906,833.5 Q329.7656,833.5 329.5,833.2656 Q329.25,833.0313 329.25,832.6406 Q329.25,832.2656 329.5156,832.0313 Q329.7813,831.7969 330.3906,831.7969 L330.6563,831.7969 L330.6563,825.1406 L330.3906,825.1406 Q329.7656,825.1406 329.5,824.9063 Q329.25,824.6719 329.25,824.2813 Q329.25,823.9063 329.5,823.6719 Q329.7656,823.4375 330.3906,823.4375 L338.0156,823.4375 L338.0156,826.0313 Q338.0156,826.6406 337.7813,826.9063 Q337.5625,827.1563 337.1719,827.1563 Q336.7969,827.1563 336.5625,826.9063 Q336.3281,826.6406 336.3281,826.0313 L336.3281,825.1406 L332.3594,825.1406 L332.3594,827.5938 L333.8438,827.5938 Q333.8438,826.9375 333.9688,826.75 Q334.2344,826.3438 334.7031,826.3438 Q335.0781,826.3438 335.3125,826.6094 Q335.5469,826.8594 335.5469,827.4688 L335.5469,829.4375 Q335.5469,829.9844 335.4219,830.1719 Q335.1563,830.5625 334.7031,830.5625 Q334.2344,830.5625 333.9688,830.1563 Q333.8438,829.9688 333.8438,829.2969 L332.3594,829.2969 Z " fill="#000000"/><text fill="#000000" font-family="sans-serif" font-size="14" lengthAdjust="spacing" textLength="77.0273" x="347.5" y="834.2969">NivelConfort</text><line style="stroke:#181818;stroke-width:0.5;" x1="319.5" x2="426.5273" y1="844.5" y2="844.5"/><text fill="#000000" font-family="sans-serif" font-size="14" lengthAdjust="spacing" textLength="52.9033" x="324.5" y="863.6074">BASICO</text><text fill="#000000" font-family="sans-serif" font-size="14" lengthAdjust="spacing" textLength="45.8896" x="324.5" y="882.2285">MEDIO</text><text fill="#000000" font-family="sans-serif" font-size="14" lengthAdjust="spacing" textLength="66.1104" x="324.5" y="900.8496">PREMIUM</text><line style="stroke:#181818;stroke-width:0.5;" x1="319.5" x2="426.5273" y1="908.3633" y2="908.3633"/></g><!--class TipoTransmision--><g id="elem_TipoTransmision"><rect codeLine="110" fill="#F1F1F1" height="85.2422" id="TipoTransmision" rx="2.5" ry="2.5" style="stroke:#181818;stroke-width:0.5;" width="135.4756" x="305.5" y="952"/><ellipse cx="320.5" cy="968" fill="#EB937F" rx="11" ry="11" style="stroke:#181818;stroke-width:1.0;"/><path d="M319.3594,968.7969 L319.3594,971.2969 L323.6875,971.2969 L323.6875,970.375 Q323.6875,969.7656 323.9219,969.5 Q324.1719,969.2344 324.5469,969.2344 Q324.9219,969.2344 325.1563,969.5 Q325.3906,969.7656 325.3906,970.375 L325.3906,973 L317.3906,973 Q316.7656,973 316.5,972.7656 Q316.25,972.5313 316.25,972.1406 Q316.25,971.7656 316.5156,971.5313 Q316.7813,971.2969 317.3906,971.2969 L317.6563,971.2969 L317.6563,964.6406 L317.3906,964.6406 Q316.7656,964.6406 316.5,964.4063 Q316.25,964.1719 316.25,963.7813 Q316.25,963.4063 316.5,963.1719 Q316.7656,962.9375 317.3906,962.9375 L325.0156,962.9375 L325.0156,965.5313 Q325.0156,966.1406 324.7813,966.4063 Q324.5625,966.6563 324.1719,966.6563 Q323.7969,966.6563 323.5625,966.4063 Q323.3281,966.1406 323.3281,965.5313 L323.3281,964.6406 L319.3594,964.6406 L319.3594,967.0938 L320.8438,967.0938 Q320.8438,966.4375 320.9688,966.25 Q321.2344,965.8438 321.7031,965.8438 Q322.0781,965.8438 322.3125,966.1094 Q322.5469,966.3594 322.5469,966.9688 L322.5469,968.9375 Q322.5469,969.4844 322.4219,969.6719 Q322.1563,970.0625 321.7031,970.0625 Q321.2344,970.0625 320.9688,969.6563 Q320.8438,969.4688 320.8438,968.7969 L319.3594,968.7969 Z " fill="#000000"/><text fill="#000000" font-family="sans-serif" font-size="14" lengthAdjust="spacing" textLength="103.4756" x="334.5" y="973.7969">TipoTransmision</text><line style="stroke:#181818;stroke-width:0.5;" x1="306.5" x2="439.9756" y1="984" y2="984"/><text fill="#000000" font-family="sans-serif" font-size="14" lengthAdjust="spacing" textLength="58.3447" x="311.5" y="1003.1074">MANUAL</text><text fill="#000000" font-family="sans-serif" font-size="14" lengthAdjust="spacing" textLength="91.7793" x="311.5" y="1021.7285">AUTOMATICA</text><line style="stroke:#181818;stroke-width:0.5;" x1="306.5" x2="439.9756" y1="1029.2422" y2="1029.2422"/></g><!--link Coche to Vehiculo--><g id="link_Coche_Vehiculo"><path codeLine="115" d="M478.11,277.71 C500.77,291.03 509.8036,296.3364 534.2936,310.7364 " fill="none" id="Coche-to-Vehiculo" style="stroke:#181818;stroke-width:1.0;"/><polygon fill="none" points="549.81,319.86,537.3348,305.5643,531.2524,315.9086,549.81,319.86" style="stroke:#181818;stroke-width:1.0;"/></g><!--link Moto to Vehiculo--><g id="link_Moto_Vehiculo"><path codeLine="116" d="M488.58,420.5 C508.22,420.5 511.01,420.5 531.75,420.5 " fill="none" id="Moto-to-Vehiculo" style="stroke:#181818;stroke-width:1.0;"/><polygon fill="none" points="549.75,420.5,531.75,414.5,531.75,426.5,549.75,420.5" style="stroke:#181818;stroke-width:1.0;"/></g><!--link Camion to Vehiculo--><g id="link_Camion_Vehiculo"><path codeLine="117" d="M464.72,536.46 C490.92,524.6 504.0191,518.6669 533.4291,505.3669 " fill="none" id="Camion-to-Vehiculo" style="stroke:#181818;stroke-width:1.0;"/><polygon fill="none" points="549.83,497.95,530.9568,499.9,535.9014,510.8339,549.83,497.95" style="stroke:#181818;stroke-width:1.0;"/></g><!--link Sedan to Coche--><g id="link_Sedan_Coche"><path codeLine="118" d="M171.2,92.07 C202.24,111.3 224.1792,124.8993 258.1192,145.9293 " fill="none" id="Sedan-to-Coche" style="stroke:#181818;stroke-width:1.0;"/><polygon fill="none" points="273.42,155.41,261.2794,140.829,254.9589,151.0295,273.42,155.41" style="stroke:#181818;stroke-width:1.0;"/></g><!--link SUV to Coche--><g id="link_SUV_Coche"><path codeLine="119" d="M196,185.81 C215.31,189.17 218.1379,189.6658 238.1379,193.1558 " fill="none" id="SUV-to-Coche" style="stroke:#181818;stroke-width:1.0;"/><polygon fill="none" points="255.87,196.25,239.1694,187.2451,237.1065,199.0664,255.87,196.25" style="stroke:#181818;stroke-width:1.0;"/></g><!--link Deportivo to Coche--><g id="link_Deportivo_Coche"><path codeLine="120" d="M192.24,271.86 C212.6,265.59 217.3165,264.1352 238.5965,257.5852 " fill="none" id="Deportivo-to-Coche" style="stroke:#181818;stroke-width:1.0;"/><polygon fill="none" points="255.8,252.29,236.8314,251.8508,240.3616,263.3197,255.8,252.29" style="stroke:#181818;stroke-width:1.0;"/></g><!--link Scooter to Moto--><g id="link_Scooter_Moto"><path codeLine="121" d="M184.82,420.5 C207.73,420.5 215.04,420.5 239.44,420.5 " fill="none" id="Scooter-to-Moto" style="stroke:#181818;stroke-width:1.0;"/><polygon fill="none" points="257.44,420.5,239.44,414.5,239.44,426.5,257.44,420.5" style="stroke:#181818;stroke-width:1.0;"/></g><!--link Deportiva to Moto--><g id="link_Deportiva_Moto"><path codeLine="122" d="M194.12,493.77 C214.41,485.41 219.5286,483.3102 240.6086,474.6202 " fill="none" id="Deportiva-to-Moto" style="stroke:#181818;stroke-width:1.0;"/><polygon fill="none" points="257.25,467.76,238.3218,469.0731,242.8953,480.1674,257.25,467.76" style="stroke:#181818;stroke-width:1.0;"/></g><!--link Vehiculo to Persona--><g id="link_Vehiculo_Persona"><path codeLine="123" d="M894.17,364.12 C914.08,357.57 928.5509,352.7963 948.0809,346.3663 " fill="none" id="Vehiculo-to-Persona" style="stroke:#181818;stroke-width:1.0;"/><polygon fill="#181818" points="953.78,344.49,943.9805,343.5051,949.0308,346.0536,946.4823,351.1039,953.78,344.49" style="stroke:#181818;stroke-width:1.0;"/><text fill="#000000" font-family="sans-serif" font-size="13" lengthAdjust="spacing" textLength="7.23" x="902.1383" y="375.9892">1</text><text fill="#000000" font-family="sans-serif" font-size="13" lengthAdjust="spacing" textLength="19.5127" x="926.2642" y="361.6127">0..*</text></g><!--link Vehiculo to Valorable--><g id="link_Vehiculo_Valorable"><path codeLine="124" d="M894.17,460.05 C938.46,470.29 966.482,476.768 1003.402,485.298 " fill="none" id="Vehiculo-to-Valorable" style="stroke:#181818;stroke-width:1.0;stroke-dasharray:7.0,7.0;"/><polygon fill="none" points="1020.94,489.35,1004.7527,479.452,1002.0513,491.144,1020.94,489.35" style="stroke:#181818;stroke-width:1.0;"/></g><!--link Vehiculo to Validar--><g id="link_Vehiculo_Validar"><path codeLine="125" d="M894.01,411.32 C996.52,405.18 1129.37,396.1 1247,384.5 C1266.35,382.59 1280.7529,381.016 1300.8029,378.606 " fill="none" id="Vehiculo-to-Validar" style="stroke:#181818;stroke-width:1.0;"/><polygon fill="#181818" points="1306.76,377.89,1297.347,374.9927,1301.7957,378.4867,1298.3017,382.9355,1306.76,377.89" style="stroke:#181818;stroke-width:1.0;"/></g><!--link Persona to Validar--><g id="link_Persona_Validar"><path codeLine="126" d="M1247.11,322.48 C1266.9,326.01 1281.2933,328.5762 1301.0233,332.0962 " fill="none" id="Persona-to-Validar" style="stroke:#181818;stroke-width:1.0;"/><polygon fill="#181818" points="1306.93,333.15,1298.7724,327.6315,1302.0077,332.2718,1297.3674,335.5071,1306.93,333.15" style="stroke:#181818;stroke-width:1.0;"/></g><!--SRC=[TLNRRkCs47tNLn1voYPrrejDWI8F2oYojXLWsQxb67qTIxJDXEAe51KKJVD9_Oh-M8UYg8jtrmy6EPpBcJCNrIz2LQ2XPBc4kWwDqUBG69xag3BnDsVpGFAZOGQP5gUpOONGF3S2LH2q5cp3TOqAs5l0w3TJM1uqPmyi8q_gv8HGSIb5WVM5VB5AUWbxOnzls5VK9HXyOB-muhz_JyAGpIsJt6XWDn_PkxCxylmC4HHDBWee8j2A6tAqn1pa0WpleYg1AyX5ARWY_0zCA1Ey1m4SQdAN6vSos_Epo1k9FWEAhwq0VWJjVWpjimDNZz2Le7EuoBJ4Wakyf8K0VeK3HIEKg3g4xTEBa5XQnyzyBAw8V67T5DWSP9SdhmqKLXYt1w-9bU06TAlU5UadfXefMuLReiecgRU2roUy_k2aegmq4QQ9HQmzC_xnn4r8a6kwl_loHvYVUL_yfjmqN1kmXLxr5_TeH8KHTKTJ6q7OIMCtbJYr72feove2CSirZlEtTUkesdN70KgAfYzYBgHGXOO29lJnUk8Ef6aqXBLla36h5Yx5K7KfwYxYL3BY04ghyNQH0FNb2Iwy4aFnCw_782GgQgQcsF8IvPyDlx2eq72L2x3PwQ69NUIC5z07vhKDZ8aYraIhEuaiNhcCK1rHsrbPZQuZVq_xRz9O7uyQeI2R0wBaeCRSBGLDUzQutkx2zTuMl2BluhMl2kHSSjqs-nm-pUS_I3NQJsfErU4f5hWHrDyZ60Fg7CbIN_3m2Cyub7P2cmVMRotY0hkc-qkKy4qh48BV6v6_P6Tnj96-0s8FjE70WxXzTLVQSDU54dxkFqn9z5gfNpdN_VBvZWM54hQsHwBHXaCDTexUflDCkTabqPBi1fLJqtMxeLDU9DbclKeUbt5xtSUhHR9Ozxh3v7Rwdzl_dtk5Yy7jj7uDi_KoMOLTY3YBb-tnj-HnQztRSxoCezqsYOPWVeuzj7WPhdRnrddPRSFCd-__k1yGZflP6Jw6cNLhZscyIDnfiutJv2cT01yFjJDDmzLJwB26Jxjr6kwIABGsRhdDPlzywRyIGRjbfg9k_gT2Dvgjh7KJsDaQNOVX6EjqdToARAHWQDL1rd-nhZvTpMPVhkPtTpTNViSFhtTt5e_laq5E9hvR0__r7id-1m00]--></g></svg>